<mxfile host="app.diagrams.net" modified="2022-11-25T12:56:51.223Z" agent="5.0 (X11; Linux x86_64) AppleWebKit/537.36 (KHTML, like Gecko) Chrome/105.0.0.0 Safari/537.36" etag="gvLS-PADS6DC27OruxsJ" version="20.5.3" type="github">
  <diagram id="l-UKMcOk7NT9eLd1SLzE" name="Page-1">
    <mxGraphModel dx="1092" dy="750" grid="1" gridSize="10" guides="1" tooltips="1" connect="1" arrows="1" fold="1" page="1" pageScale="1" pageWidth="850" pageHeight="1100" math="0" shadow="0">
      <root>
        <mxCell id="0" />
        <mxCell id="1" parent="0" />
        <mxCell id="ccYIlSuPnftNp2pNtka8-3" value="" style="edgeStyle=orthogonalEdgeStyle;rounded=0;orthogonalLoop=1;jettySize=auto;html=1;" edge="1" parent="1" source="ccYIlSuPnftNp2pNtka8-1" target="ccYIlSuPnftNp2pNtka8-2">
          <mxGeometry relative="1" as="geometry" />
        </mxCell>
        <mxCell id="ccYIlSuPnftNp2pNtka8-1" value="dasfs" style="rounded=1;whiteSpace=wrap;html=1;" vertex="1" parent="1">
          <mxGeometry x="130" y="110" width="270" height="60" as="geometry" />
        </mxCell>
        <mxCell id="ccYIlSuPnftNp2pNtka8-2" value="asdf" style="whiteSpace=wrap;html=1;rounded=1;" vertex="1" parent="1">
          <mxGeometry x="470" y="110" width="120" height="60" as="geometry" />
        </mxCell>
      </root>
    </mxGraphModel>
  </diagram>
</mxfile>
